Fly_normalized_Motion_pl05
version=1
nRows=14
nColumns=43
inDegrees=yes
endheader
time		pelvis_tilt		pelvis_list		pelvis_rotation		pelvis_tx		pelvis_ty		pelvis_tz		hip_flexion_r		hip_adduction_r		hip_rotation_r		knee_angle_r		ankle_angle_r		subtalar_angle_r		mtp_angle_r		hip_flexion_l		hip_adduction_l		hip_rotation_l		knee_angle_l		ankle_angle_l		subtalar_angle_l		mtp_angle_l		lumbar_extension		lumbar_bending		lumbar_rotation		neck_flexion		neck_lateral_bending		neck_rotation		arm_flex_r		arm_add_r		arm_rot_r		elbow_flex_r		pro_sup_r		wrist_flex_r		wrist_dev_r		hand_finger_flex_r		arm_flex_l		arm_add_l		arm_rot_l		elbow_flex_l		pro_sup_l		wrist_flex_l		wrist_dev_l		hand_finger_flex_l		
3.010000		1.344908		-13.263121		90.952962		0.000864		1.689190		1.309459		63.072161		-7.206347		5.883557		-120.813943		-20.955444		2.409571		24.138253		46.476268		-13.709116		5.765055		-121.330046		-23.145925		0.128992		43.559744		-32.914399		-1.534534		1.345044		5.735879		10.193902		0.416386		98.822533		-10.651327		29.588921		49.946088		94.504603		2.368550		-8.732749		-25.075182		96.173903		-12.898908		22.514147		51.363763		119.074951		-14.920327		-6.104099		-14.725645		
3.013990		1.382499		-13.013363		90.944719		0.000956		1.689851		1.301836		62.978689		-7.095509		5.214174		-120.204732		-19.919425		1.829959		24.099970		46.409051		-13.715491		5.698896		-120.570094		-25.173418		-1.211098		43.359255		-32.892876		-1.503255		1.462517		5.355509		10.266912		0.453844		97.261071		-11.197584		28.976778		50.710083		95.866421		2.965617		-8.571961		-25.497667		94.801371		-13.731284		22.594605		51.800752		119.557056		-14.363067		-6.065636		-14.211783		
3.017980		1.399083		-12.799078		90.898932		0.001092		1.690312		1.294370		62.938024		-6.914676		4.611057		-119.601130		-18.661326		1.144339		24.049279		46.374531		-13.676220		5.615996		-119.831310		-26.556051		-2.151091		43.179724		-32.842263		-1.497389		1.609301		4.988820		10.339356		0.435751		95.758101		-11.679583		28.394004		51.248048		96.828663		3.451542		-8.513058		-25.827642		93.422511		-14.504592		22.616355		52.114729		119.955205		-13.985080		-5.987718		-13.812794		
3.021970		1.443382		-12.642364		90.876705		0.001340		1.690637		1.287049		62.934037		-6.696318		3.959368		-118.928343		-17.375767		0.404535		23.979346		46.421717		-13.681009		5.527994		-119.120097		-26.985679		-3.152116		43.026677		-32.757138		-1.480283		1.766206		4.625708		10.455440		0.417172		94.272331		-12.175693		27.842061		51.704338		97.591120		3.732210		-8.534976		-26.023777		92.070350		-15.280278		22.695920		52.383309		120.364124		-13.708214		-5.823396		-13.469472		
3.025960		1.515075		-12.563233		90.936002		0.001348		1.690655		1.279804		62.992365		-6.553080		3.257572		-118.181283		-16.180497		-0.442173		23.872492		46.565387		-13.621087		5.461076		-118.490191		-26.276506		-4.560615		42.853085		-32.598847		-1.394462		1.874723		4.341902		10.660470		0.385453		92.700747		-12.592709		27.036416		52.134059		98.521959		3.897531		-8.513472		-26.105883		90.653123		-16.023085		22.664069		52.695625		120.868388		-13.489128		-5.448707		-13.090000		
3.029949		1.539488		-12.509773		91.042570		0.001232		1.690586		1.272691		63.070224		-6.486116		2.590675		-117.341061		-15.188646		-1.266212		23.761153		46.734382		-13.471094		5.359213		-117.888389		-24.676508		-5.933170		42.699745		-32.448314		-1.309729		1.920686		4.089660		10.818838		0.340781		91.169705		-13.015748		26.264547		52.506164		99.246715		3.960500		-8.508470		-26.036102		89.222289		-16.785544		22.640788		53.002142		121.337075		-13.391718		-5.037476		-12.817150		
3.033939		1.532310		-12.473764		91.177711		0.001048		1.690561		1.265563		63.154373		-6.544303		1.884924		-116.390214		-14.461554		-1.982024		23.638818		46.878864		-13.286933		5.196294		-117.220777		-22.880695		-7.196372		42.537752		-32.342585		-1.224564		1.937377		3.797526		10.861096		0.314448		89.589125		-13.495108		25.466225		52.974947		99.725474		3.981071		-8.535453		-25.866963		87.759424		-17.645249		22.670150		53.387772		121.783231		-13.349183		-4.684618		-12.630352		
3.037929		1.536749		-12.441045		91.347083		0.000689		1.690120		1.258460		63.262109		-6.624962		1.193429		-115.398224		-13.705443		-2.805536		23.501982		47.072240		-13.048009		5.072183		-116.597205		-20.813141		-8.695293		42.350557		-32.182575		-1.081390		1.916358		3.577596		10.988900		0.258781		87.998853		-13.858716		24.619471		53.338714		100.080245		3.887682		-8.194641		-25.596701		86.254974		-18.479930		22.659569		53.687370		122.169080		-13.349929		-4.042546		-12.563126		
3.041919		1.542596		-12.403894		91.559170		0.000325		1.689696		1.251265		63.338761		-6.743009		0.492827		-114.311429		-13.200296		-3.456217		23.355224		47.285185		-12.823058		4.941078		-115.883016		-19.189930		-10.180936		42.130846		-32.069284		-0.928461		1.871239		3.345172		11.034581		0.192624		86.325864		-14.283587		23.726737		53.823483		100.151960		3.734545		-7.775571		-25.253056		84.732930		-19.392347		22.725453		54.054223		122.509541		-13.341435		-3.464544		-12.626223		
3.045909		1.560727		-12.312820		91.763512		0.000003		1.689220		1.244026		63.392215		-6.892160		-0.216256		-113.188979		-12.913577		-3.888571		23.248974		47.463423		-12.658999		4.776460		-115.076370		-18.096616		-11.714393		41.949683		-32.040098		-0.761605		1.849775		3.106463		11.042842		0.101160		84.655246		-14.769990		22.920942		54.329259		99.960921		3.519316		-7.376898		-24.971699		83.255985		-20.361698		22.888397		54.357322		122.761150		-13.330600		-3.012073		-12.791516		
3.049899		1.600186		-12.198887		91.969973		-0.000286		1.688524		1.236708		63.422581		-7.040608		-0.914796		-112.037765		-12.828830		-4.151946		23.148904		47.684118		-12.539783		4.604162		-114.264112		-17.481096		-13.285426		41.758785		-32.022814		-0.565414		1.838405		2.921719		11.040598		0.007431		82.944826		-15.260615		22.127031		54.813899		99.725895		3.253597		-6.966064		-24.676850		81.791878		-21.370150		23.104046		54.603302		123.003047		-13.277736		-2.562695		-13.012778		
3.053889		1.753998		-12.194984		92.350220		-0.000662		1.687541		1.229562		63.564804		-7.168277		-1.655951		-110.854859		-12.992195		-4.253075		22.948177		48.162397		-12.413067		4.578069		-113.383959		-17.768824		-16.009642		41.291456		-31.922470		-0.214969		1.745710		2.863602		11.128995		-0.110038		81.135008		-15.698339		21.158813		55.417784		99.692419		2.704517		-6.230077		-23.972758		80.289895		-22.432967		23.326636		55.052918		123.274166		-13.011063		-1.764670		-13.639048		
3.057879		1.944819		-12.074776		92.628743		-0.000861		1.686550		1.222447		63.606849		-7.179623		-2.342493		-109.643087		-13.344313		-3.944135		22.805334		48.517406		-12.462364		4.429842		-112.479629		-18.094526		-18.765170		40.861986		-31.920400		0.141172		1.673470		2.725466		11.215644		-0.221349		79.448444		-15.924327		20.290704		55.563074		99.593427		2.080254		-5.908160		-23.549947		78.799531		-23.599687		23.551508		55.362481		123.392806		-12.703152		-1.234646		-14.284065		
3.061869		2.027101		-11.881697		92.858568		-0.000848		1.685474		1.215185		63.529795		-7.187224		-2.852438		-108.402181		-13.739337		-3.514025		22.715577		48.767171		-12.457329		4.198645		-111.543546		-18.389789		-20.378291		40.539740		-32.006358		0.374667		1.584503		2.441418		11.059798		-0.261093		77.767235		-16.306961		19.608997		55.703009		99.459224		1.652443		-5.965684		-23.331151		77.330740		-24.875136		23.895479		55.627571		123.564345		-12.394192		-1.083553		-14.758196		
